<svg width="60" height="60" viewBox="0 0 60 60" fill="none" xmlns="http://www.w3.org/2000/svg">
<path d="M8.90625 21.0938C8.90625 31.5136 16.8611 42.8184 23.8802 52.5877C25.5487 54.9086 27.147 57.1315 28.5374 59.2172C28.8635 59.7064 29.4129 60 29.9999 60C30.5869 60 31.1362 59.7064 31.4624 59.2172C32.8528 57.1315 34.451 54.9084 36.1195 52.5877C43.1389 42.8184 51.0938 31.5136 51.0938 21.0938C51.0938 9.46195 41.6318 0 30 0C18.3682 0 8.90625 9.46195 8.90625 21.0938ZM40.5469 21.0938C40.5469 26.9096 35.8159 31.6406 30 31.6406C24.1841 31.6406 19.4531 26.9096 19.4531 21.0938C19.4531 15.2779 24.1841 10.5469 30 10.5469C35.8159 10.5469 40.5469 15.2779 40.5469 21.0938Z" fill="#FFFFFF"/>
<path d="M30 28.125C33.8833 28.125 37.0312 24.977 37.0312 21.0938C37.0312 17.2105 33.8833 14.0625 30 14.0625C26.1167 14.0625 22.9688 17.2105 22.9688 21.0938C22.9688 24.977 26.1167 28.125 30 28.125Z" fill="#FFFFFF"/>
</svg>
